<svg width="148" height="148" viewBox="0 0 148 148" fill="none" xmlns="http://www.w3.org/2000/svg">
<path d="M74 0.5C33.41 0.5 0.5 33.41 0.5 74C0.5 114.59 33.41 147.5 74 147.5C114.59 147.5 147.5 114.59 147.5 74C147.5 33.41 114.59 0.5 74 0.5ZM117.44 126.305C110.465 126.05 95.705 123.725 89.255 109.265C87.545 105.425 87.365 102.245 89.255 100.115C91.505 97.565 94.325 90.71 95.36 84.86C95.78 82.535 101.39 81.74 101.465 75.71C104.225 72.695 101.45 67.265 101.465 63.5C101.495 54.155 102.5 45.23 98.405 39.08C86.3 20.885 62.09 21.05 49.58 39.08C45.74 44.6 46.505 54.11 46.52 63.5C46.52 67.355 43.265 72.515 46.52 75.71C46.52 81.77 51.86 81.56 52.625 84.86C53.99 90.8 55.67 97.085 58.73 100.115C61.715 103.1 60.08 105.305 58.73 109.265C54.335 122.18 38.855 126.065 31.685 127.19C16.055 114.74 6.02 95.54 6.02 74C6.02 36.455 36.47 6.005 74.015 6.005C111.56 6.005 141.995 36.44 141.995 74C141.995 95.03 132.44 113.84 117.44 126.305Z" fill="black" fill-opacity="0.4"/>
</svg>
